<?xml version="1.0" encoding="UTF-8"?>
<svg width="810.68" height="229.67" version="1.1" viewBox="0 0 810.68 229.67" xmlns="http://www.w3.org/2000/svg">
 <g transform="translate(-385.13 -92.718)" stroke="#fff" stroke-linecap="round" stroke-width="11" style="paint-order:stroke markers fill">
  <g transform="translate(-6.9416)" stroke-width="11" style="paint-order:stroke markers fill">
   <g fill="#7d8862">
    <path d="m513.64 185.62c-15.711-0.57335-28.468 10.824-37.158 22.745-7.8639 11.838-16.516 23.169-26.521 33.293-11.516 12.807-20.601 30.297-16.944 47.954 2.7289 14.015 15.636 23.664 29.142 26.117 4.9832 0.87934 12.679 3.2098 15.064-3.0338 3.6526-11.761 8.9335-24.389 20.26-30.668 7.3597-4.6022 16.202-5.2085 24.229-7.9702 5.7265-3.3096-5.4011-3.2589-7.648-2.8976-3.7165 0.63296-13.849 1.5235-6.8732-3.8566 6.9759-7.4563 16.392-12.116 26.205-14.551 5.5518-4.2612-12.434-0.41879-5.7798-7.205 1.9756-3.8467 8.3499-10.532 6.1891-13.862-5.7532 4.6521-9.0993 12.082-15.69 15.724-4.1456 0.23824-1.0702-13.959-4.9585-7.0827-2.4937 8.1905-4.7946 17.461-12.148 22.717-8.372 3.421-2.4325-11.815-7.9601-12.248-2.7869 10.496-3.4002 22.18-10.796 30.804-1.4341 3.4138-6.1078 6.8252-6.6629 1.0287-5.8331-18.537 4.4752-39.741 21.58-48.265 12.309-6.9886 25.866-11.597 37.844-19.162 4.7434-3.0028 10.385-8.8075 6.9507-14.741-5.0641-7.4259-13.781-11.741-22.252-14.039-1.9938-0.45165-4.0288-0.726-6.072-0.79997z" style="paint-order:stroke markers fill"/>
    <path d="m436.12 232.58c5.3894-1.1717 6.8048-5.3207-0.0501-15.329-6.8225-9.9611-19.241-25.1-20.474-31.06-1.1181-5.4068 8.0837 3.8975 14.687 13.629 16.323 24.057 22.152 26.323 22.277 6.5726 0.29026-45.793-53.012-65.015-54.938-19.811-1.1118 26.103 19.073 50.222 38.497 46z" style="paint-order:stroke markers fill"/>
    <path d="m470.93 98.218c-5.7075 0.0117-11.474 2.5025-16.711 8.2324-18.401 20.133-8.0194 66.39 16.602 73.967h2e-3c11.9 3.662 13.837-1.9 8.6797-24.92-2.5395-11.334-6.646-22.794-5.4238-21.662 1.8732 1.734 9.7471 22.574 11.416 31.285 0.8826 4.6069 1.8175 9.3894 2.0762 10.627 1.117 5.344 7.8012-0.11102 12.561-10.25 13.899-29.609-6.3577-66.047-28.061-67.248-0.3798-0.02102-0.76012-0.03203-1.1406-0.03125z" style="paint-order:stroke markers fill"/>
   </g>
   <g fill="#a7794d">
    <path d="m544.38 178.56c-1.5168-3.9526 2.6952-29.076 6.5173-38.875 1.6418-4.209 1.4326-7.7505-0.41581-7.0412-4.0542 1.5557-10.352 16.93-13.416 32.751-2.2823 11.785-2.4812 12.027-6.2426 7.6052-27.153-31.919 9.9691-95.981 37.998-65.574 18.912 20.517 5.9201 68.073-19.717 72.172-3.2922 0.52644-4.1997 0.32688-4.7238-1.0387z" style="paint-order:stroke markers fill"/>
    <path d="m588.32 230.36c-5.1139-1.1118-4.8861-2.8497 1.6183-12.346 6.4737-9.4519 10.404-17.22 11.574-22.875 1.0609-5.1304-1.2251-3.6144-6.7103 4.4502-15.571 22.893-21.962 24.608-22.081 5.9224-0.27533-43.452 50.302-61.691 52.129-18.798 1.055 24.769-18.098 47.655-36.529 43.648z" style="paint-order:stroke markers fill"/>
    <path d="m537.5 311.95c-6.05-1.6284-13.23-3.4645-15.954-4.0803-6.385-1.4428-18.948-0.40906-27.835 2.2906-8.3091 2.5238-8.69 2.2144-6.1117-4.9634 2.0451-5.6933 2.0451-5.6933 12.344-6.9029 33.888-3.9804 51.323-25.496 51.489-63.54 0.0773-17.712-0.0144-17.493 4.6197-11 1.8645 2.6125 8.667 10.271 15.117 17.02 37.778 39.528 16.429 84.661-33.668 71.177z" style="paint-order:stroke markers fill"/>
   </g>
  </g>
  <g transform="matrix(1.2524,0,0,1.2524,284.67,-289.99)" stroke-linejoin="round" style="paint-order:stroke markers fill">
   <g transform="matrix(.8221 0 0 .83159 105.98 52.057)" stroke-width="10.623" style="paint-order:stroke markers fill">
    <g fill="#7d8862">
     <path d="m310.47 366.73h-35.389v19.043h32.585c2.3981 0 4.179 0.5466 5.3427 1.6398 1.199 1.0579 1.7985 2.4685 1.7985 4.2318s-0.58187 3.2091-1.7456 4.3376c-1.1637 1.0932-2.9621 1.6398-5.3955 1.6398h-32.585v22.058h36.605c2.4686 0 4.32 0.58187 5.5543 1.7456 1.2695 1.1285 1.9043 2.6449 1.9043 4.5492 0 1.8338-0.63477 3.3326-1.9043 4.4963-1.2343 1.1285-3.0857 1.6927-5.5543 1.6927h-42.689c-3.4207 0-5.8893-0.7582-7.4057-2.2746-1.4811-1.5164-2.2217-3.9673-2.2217-7.3528v-58.294c0-2.257 0.33503-4.0908 1.0051-5.5014 0.67007-1.4459 1.7104-2.4862 3.121-3.121 1.4459-0.67007 3.2797-1.0051 5.5014-1.0051h41.472c2.5039 0 4.3553 0.56423 5.5543 1.6927 1.2343 1.0932 1.8514 2.5391 1.8514 4.3376 0 1.8338-0.61713 3.3149-1.8514 4.4434-1.199 1.0932-3.0504 1.6398-5.5543 1.6398z" opacity=".99" style="paint-order:stroke markers fill"/>
     <path d="m382.06 416.57c-0.0915 1.6917-0.51487 3.5045-1.5446 5.4312-0.99653 1.9267-2.5412 3.7703-4.634 5.5309-2.0595 1.7273-4.6672 3.1225-7.8229 4.1855s-6.7101 1.5945-10.663 1.5945c-8.404 0-14.965-2.4416-19.682-7.3247-4.717-4.9163-7.0755-11.494-7.0755-19.732 0-5.5807 1.0796-10.514 3.2388-14.799 2.1592-4.2852 5.2817-7.5904 9.3676-9.9157 4.0859-2.3585 8.9689-3.5378 14.649-3.5378 3.5211 0 6.7433 0.51487 9.6666 1.5446 2.9565 1.0298 5.4479 2.3585 7.4742 3.9862 2.0595 1.6277 3.6208 3.3717 4.6838 5.2319 1.0962 1.827 1.6443 3.5377 1.6443 5.1322 0 1.6277-0.61453 3.0063-1.8436 4.1357-1.1959 1.1294-2.6575 1.6941-4.3848 1.6941-1.1294 0-2.0761-0.28236-2.8402-0.84707-0.7308-0.59793-1.5613-1.5447-2.4914-2.8402-1.6609-2.5246-3.4049-4.4181-5.2319-5.6804-1.7938-1.2623-4.0859-1.8934-6.8762-1.8934-4.0194 0-7.2582 1.5779-9.7164 4.7336-2.4581 3.1225-3.6872 7.4079-3.6872 12.856 0 2.5578 0.31557 4.9163 0.94672 7.0755 0.63115 2.126 1.5446 3.953 2.7405 5.481 1.1959 1.4948 2.6409 2.6408 4.335 3.4381 1.6941 0.764 3.5544 1.146 5.5807 1.146 2.7239 0 5.0492-0.63113 6.9759-1.8934 1.9599-1.2623 3.6872-3.1889 5.1821-5.78 0.83047-1.5281 1.7274-2.7239 2.6907-3.5876s2.1426-1.2955 3.5378-1.2955c1.6609 0 3.0395 0.63113 4.1357 1.8934s1.7214 2.6096 1.6443 4.036z" opacity=".99" style="paint-order:stroke markers fill"/>
     <path d="m452.71 405.76c0 4.0527-0.63114 7.7897-1.8934 11.211-1.2623 3.4215-3.0893 6.3613-5.481 8.8195-2.3917 2.4581-5.2485 4.3516-8.5704 5.6804-3.3219 1.2955-7.0589 1.9433-11.211 1.9433-4.1191 0-7.8231-0.66437-11.112-1.9931-3.2886-1.3287-6.1454-3.2222-8.5704-5.6804-2.3917-2.4914-4.2187-5.4146-5.481-8.7697-1.2291-3.3883-1.8436-7.1253-1.8436-11.211 0-4.1191 0.63113-7.8894 1.8934-11.311 1.2623-3.4215 3.0727-6.3447 5.4312-8.7697 2.3585-2.4249 5.2153-4.2852 8.5704-5.5807 3.3551-1.3287 7.0591-1.9931 11.112-1.9931 4.1191 0 7.8561 0.66437 11.211 1.9931 3.3551 1.3287 6.2285 3.2222 8.6202 5.6804 2.3917 2.4581 4.2021 5.3814 5.4312 8.7697 1.2623 3.3883 1.8934 7.1253 1.8934 11.211zm-13.653 0c0-5.5475-1.2291-9.8658-3.6872-12.955-2.4249-3.0893-5.6969-4.634-9.816-4.634-2.6575 0-4.9994 0.6976-7.0257 2.0928-2.0263 1.3619-3.5876 3.3883-4.6838 6.079s-1.6443 5.8299-1.6443 9.4174c0 3.5544 0.5315 6.6603 1.5945 9.3178 1.0962 2.6575 2.6409 4.7004 4.634 6.1288 2.0263 1.3952 4.4015 2.0928 7.1254 2.0928 4.1191 0 7.3911-1.5447 9.816-4.634 2.4581-3.1225 3.6872-7.4242 3.6872-12.905z" opacity=".99" style="paint-order:stroke markers fill"/>
    </g>
    <g fill="#b28152">
     <path d="m502.53 401.96h-14.388v21.953q0 4.7079-2.2217 7.1412t-5.6072 2.4333q-3.5442 0-5.713-2.3804-2.1688-2.4333-2.1688-7.0883v-59.775q0-5.184 2.3804-7.4057t7.5644-2.2217h20.154q8.9398 0 13.753 1.3754 4.7608 1.3224 8.1992 4.3905 3.4913 3.0681 5.2898 7.5115t1.7985 9.9977q0 11.849-7.2999 17.985-7.2999 6.0833-21.741 6.0833zm-3.8086-35.547h-10.58v23.698h10.58q5.5543 0 9.2571-1.1638 3.7558-1.1638 5.713-3.8086 1.9572-2.6449 1.9572-6.9296 0-5.1311-3.0152-8.3579-3.3855-3.4384-13.912-3.4384z" opacity=".99" style="paint-order:stroke markers fill"/>
     <path d="m581.02 425.74c-3.2886 2.5578-6.4776 4.4845-9.5669 5.78-3.0561 1.2623-6.4941 1.8934-10.314 1.8934-3.4879 0-6.5606-0.68097-9.2181-2.0429-2.6243-1.3952-4.6506-3.272-6.079-5.6305s-2.1426-4.9163-2.1426-7.6735c0-3.7205 1.1793-6.8928 3.5378-9.5171 2.3585-2.6243 5.5973-4.3848 9.7164-5.2817 0.86367-0.19931 3.0063-0.64778 6.4278-1.3454 3.4215-0.69762 6.3448-1.3288 8.7697-1.8934 2.4581-0.59793 5.1156-1.3121 7.9724-2.1426-0.16608-3.5876-0.89688-6.2119-2.1924-7.8728-1.2623-1.6941-3.9031-2.5412-7.9226-2.5412-3.4547 0-6.0624 0.48167-7.8229 1.445-1.7273 0.96333-3.2222 2.4083-4.4845 4.335-1.2291 1.9267-2.1094 3.2056-2.6409 3.8367-0.49827 0.59793-1.5945 0.8969-3.2886 0.8969-1.5281 0-2.8568-0.48167-3.9862-1.445-1.0962-0.99653-1.6443-2.2588-1.6443-3.7869 0-2.3917 0.84707-4.717 2.5412-6.9759 1.6941-2.2589 4.335-4.1191 7.9226-5.5807s8.0556-2.1924 13.404-2.1924c5.9793 0 10.68 0.7142 14.101 2.1426 3.4215 1.3952 5.8298 3.6208 7.225 6.6769 1.4284 3.0561 2.1426 7.1087 2.1426 12.158 0 3.1889-0.0166 5.8962-0.0498 8.1219 0 2.2257-0.0166 4.7004-0.0498 7.4243 0 2.5578 0.41524 5.2319 1.2457 8.0222 0.86367 2.7571 1.2955 4.5343 1.2955 5.3316 0 1.3952-0.66436 2.6741-1.9931 3.8367-1.2955 1.1294-2.7738 1.6941-4.4347 1.6941-1.3952 0-2.7738-0.64777-4.1357-1.9433-1.3619-1.3287-2.8069-3.2388-4.335-5.7302zm-0.8969-19.682c-1.9931 0.7308-4.8997 1.5114-8.7198 2.3419-3.7869 0.79727-6.4112 1.3952-7.8728 1.7938-1.4616 0.3654-2.8568 1.1128-4.1855 2.2422-1.3287 1.0962-1.9931 2.6409-1.9931 4.634 0 2.0595 0.78064 3.8201 2.3419 5.2817 1.5613 1.4284 3.6042 2.1426 6.1288 2.1426 2.6907 0 5.1654-0.58133 7.4243-1.744 2.2921-1.1959 3.9696-2.7239 5.0326-4.5841 1.2291-2.0595 1.8436-5.4479 1.8436-10.165z" opacity=".99" style="paint-order:stroke markers fill"/>
     <path d="m623.5 386.58 8.8693 30.395 8.0721-28.252c0.86366-2.9565 1.4948-4.9662 1.8934-6.0292 0.43184-1.0962 1.2125-2.126 2.3419-3.0893 1.1627-0.99653 2.7405-1.4948 4.7336-1.4948 2.0263 0 3.6042 0.49827 4.7336 1.4948 1.1627 0.96333 1.9765 2.0263 2.4416 3.189 0.46505 1.1294 1.1128 3.1059 1.9433 5.9295l8.0721 28.252 8.969-30.395c0.59792-2.1924 1.0796-3.7703 1.445-4.7336 0.3654-0.99653 0.97993-1.8602 1.8436-2.591 0.86366-0.764 2.1094-1.146 3.7371-1.146 1.6277 0 3.0395 0.5647 4.2354 1.6941 1.1959 1.1294 1.7938 2.4581 1.7938 3.9862 0 1.3952-0.5149 3.5046-1.5447 6.3281l-11.112 32.587c-0.96334 2.7571-1.7107 4.7502-2.2422 5.9793-0.5315 1.2291-1.3786 2.3253-2.5412 3.2886-1.1294 0.96333-2.6907 1.445-4.6838 1.445-2.0595 0-3.6872-0.5149-4.8831-1.5447-1.1627-1.0298-2.0263-2.2921-2.591-3.7869-0.56472-1.4948-1.1792-3.4381-1.8436-5.8298l-7.7731-26.508-7.524 26.508c-0.99654 3.6873-2.0761 6.4776-3.2388 8.371-1.1627 1.8603-3.2056 2.7904-6.1288 2.7904-1.4948 0-2.7737-0.29897-3.8367-0.8969-1.0297-0.56471-1.8934-1.3786-2.591-2.4416-0.6976-1.0962-1.3121-2.3751-1.8436-3.8367-0.5315-1.4948-0.94673-2.6741-1.2457-3.5378l-11.012-32.587c-1.0962-3.0561-1.6443-5.1654-1.6443-6.3281 0-1.4616 0.58133-2.7737 1.744-3.9364 1.1627-1.1627 2.5911-1.744 4.2852-1.744 2.2589 0 3.7869 0.64777 4.5841 1.9433 0.79726 1.2623 1.6443 3.4381 2.5412 6.5274z" opacity=".99" style="paint-order:stroke markers fill"/>
     <path d="m750.73 415.62c0 3.7537-0.9135 6.9759-2.7405 9.6666-1.827 2.6575-4.5343 4.6838-8.1219 6.079-3.5544 1.3619-7.8894 2.0429-13.005 2.0429-4.8831 0-9.0688-0.7474-12.557-2.2422-3.4879-1.4948-6.0624-3.355-7.7233-5.5807-1.6609-2.2589-2.4914-4.5177-2.4914-6.7766 0-1.4948 0.5315-2.7737 1.5945-3.8367s2.4083-1.5945 4.036-1.5945c1.4284 0 2.5246 0.3488 3.2886 1.0464s1.4948 1.6775 2.1924 2.9398c1.3952 2.4249 3.0561 4.2353 4.9828 5.4312 1.9599 1.1959 4.6173 1.7938 7.9724 1.7938 2.7239 0 4.9496-0.59793 6.6769-1.7938 1.7606-1.2291 2.6409-2.6242 2.6409-4.1855 0-2.3917-0.9135-4.1357-2.7405-5.2319-1.7938-1.0962-4.7669-2.1426-8.9192-3.1391-4.6838-1.1627-8.5038-2.3751-11.46-3.6374-2.9232-1.2955-5.2651-2.9897-7.0257-5.0824s-2.6409-4.6672-2.6409-7.7233c0-2.7239 0.81386-5.2984 2.4416-7.7233 1.6277-2.4249 4.0195-4.3516 7.1752-5.78 3.1889-1.4616 7.0256-2.1924 11.51-2.1924 3.5211 0 6.6769 0.3654 9.4672 1.0962 2.8236 0.7308 5.1655 1.7107 7.0257 2.9398 1.8935 1.2291 3.3219 2.591 4.2852 4.0859 0.99653 1.4948 1.4948 2.9564 1.4948 4.3848 0 1.5613-0.5315 2.8402-1.5945 3.8367-1.0298 0.99653-2.508 1.4948-4.4347 1.4948-1.3952 0-2.5911-0.39863-3.5876-1.1959-0.96334-0.79727-2.0761-1.9931-3.3384-3.5876-1.0298-1.3287-2.2423-2.3917-3.6374-3.189-1.3952-0.79727-3.2887-1.1959-5.6804-1.1959-2.4581 0-4.5011 0.5315-6.1288 1.5945-1.6277 1.0298-2.4416 2.3253-2.4416 3.8866 0 1.4284 0.59793 2.6077 1.7938 3.5378 1.1959 0.89693 2.807 1.6443 4.8333 2.2422 2.0263 0.59793 4.8167 1.3287 8.371 2.1924 4.2187 1.0298 7.6567 2.2589 10.314 3.6872 2.6907 1.4284 4.717 3.1225 6.079 5.0824 1.3952 1.9267 2.0928 4.1357 2.0928 6.6271z" opacity=".99" style="paint-order:stroke markers fill"/>
    </g>
   </g>
   <g transform="matrix(1.2236 0 0 .81727 -2.5163 0)" fill="#7d8862" opacity=".99" stroke-width="8.7831" style="paint-order:stroke markers fill" aria-label="STORE">
    <path d="m371.46 553.08q0 2.1652-0.80899 3.8546-0.7852 1.6894-2.2128 2.8791-1.4038 1.1659-3.3312 1.7608-1.9035 0.59485-4.1164 0.59485-1.5466 0-2.8791-0.26174-1.3087-0.26173-2.3556-0.64243-1.0231-0.38071-1.737-0.7852-0.69002-0.4045-0.97555-0.69003-0.26173-0.28553-0.4045-0.71382-0.11897-0.45208-0.11897-1.1897 0-0.52347 0.0476-0.85659 0.0476-0.3569 0.14276-0.57105 0.0952-0.21415 0.23794-0.28553 0.14277-0.0952 0.33312-0.0952 0.33311 0 0.92796 0.40449 0.61864 0.4045 1.5704 0.88038t2.2842 0.90417q1.3563 0.4045 3.117 0.4045 1.3325 0 2.427-0.35691 1.1183-0.35691 1.9035-0.99935 0.80899-0.66623 1.2373-1.618 0.42829-0.95175 0.42829-2.1652 0-1.3087-0.59485-2.2366-0.59485-0.92796-1.5704-1.618-0.97555-0.71382-2.2366-1.2849-1.2373-0.59485-2.546-1.1897-1.3087-0.61865-2.546-1.3563-1.2373-0.73761-2.2128-1.737-0.97555-0.99934-1.5942-2.3318-0.59485-1.3563-0.59485-3.236 0-1.9273 0.69002-3.4263 0.71382-1.5228 1.9511-2.546 1.2611-1.0231 2.9742-1.5466 1.737-0.54726 3.7356-0.54726 1.0231 0 2.0463 0.19035 1.0469 0.16656 1.9511 0.47588 0.92796 0.28553 1.6418 0.66623 0.71382 0.35691 0.92797 0.59485 0.23794 0.21415 0.30932 0.35691 0.0714 0.11897 0.11897 0.33312 0.0476 0.19035 0.0714 0.47587 0.0238 0.28553 0.0238 0.73762 0 0.42829-0.0476 0.7614-0.0238 0.33312-0.0952 0.57106-0.0714 0.21414-0.21415 0.33311-0.11896 0.0952-0.28552 0.0952-0.26174 0-0.83279-0.33312-0.54726-0.33311-1.3563-0.73761-0.80899-0.42829-1.9273-0.7614-1.0945-0.35691-2.4746-0.35691-1.2849 0-2.2366 0.35691-0.95175 0.33311-1.5704 0.90417-0.61864 0.57105-0.92796 1.3562t-0.30932 1.6656q0 1.2849 0.59485 2.2128 0.59485 0.92797 1.5704 1.6418 0.99934 0.71381 2.2604 1.3087t2.5698 1.2135q1.3087 0.59485 2.5697 1.3325 1.2611 0.71382 2.2366 1.7132 0.99934 0.97555 1.5942 2.3318 0.61864 1.3325 0.61864 3.1646z" style="paint-order:stroke markers fill"/>
    <path d="m403.65 532.69c0 0.30139-0.0159 0.56312-0.0476 0.7852-0.0317 0.22207-0.0873 0.40449-0.16656 0.54726-0.0635 0.1269-0.15071 0.22208-0.26173 0.28553-0.0952 0.0635-0.20622 0.0952-0.33312 0.0952h-8.661v26.697c0 0.1269-0.0317 0.23794-0.0952 0.33311-0.0635 0.0952-0.1745 0.17449-0.33311 0.23794-0.15862 0.0476-0.37277 0.0873-0.64244 0.11897-0.2538 0.0476-0.57898 0.0714-0.97555 0.0714-0.3807 0-0.70589-0.0238-0.97555-0.0714-0.26966-0.0317-0.48381-0.0714-0.64244-0.11897-0.15862-0.0635-0.26966-0.14278-0.33312-0.23794-0.0635-0.0952-0.0952-0.20621-0.0952-0.33311v-26.697h-8.661c-0.1269 0-0.24587-0.0317-0.35691-0.0952-0.0952-0.0635-0.17448-0.15864-0.23794-0.28553-0.0635-0.14277-0.11898-0.32519-0.16655-0.54726-0.0317-0.22208-0.0476-0.48381-0.0476-0.7852s0.0159-0.56313 0.0476-0.7852c0.0476-0.23794 0.10312-0.42829 0.16655-0.57106 0.0635-0.14276 0.14278-0.24587 0.23794-0.30932 0.11104-0.0635 0.23001-0.0952 0.35691-0.0952h21.415c0.1269 0 0.23794 0.0317 0.33312 0.0952 0.11104 0.0635 0.19829 0.16657 0.26173 0.30932 0.0793 0.14277 0.13484 0.33312 0.16656 0.57106 0.0317 0.22207 0.0476 0.48381 0.0476 0.7852z" style="paint-order:stroke markers fill"/>
    <path d="m442.11 545.97c0 2.4904-0.29345 4.735-0.88037 6.7337-0.58692 1.9987-1.4673 3.7039-2.6411 5.1157-1.158 1.3959-2.6174 2.4746-4.3781 3.236-1.7607 0.74553-3.8149 1.1183-6.1626 1.1183-2.3159 0-4.3226-0.34103-6.0199-1.0231-1.6815-0.69793-3.0774-1.7052-4.1877-3.0218-1.0945-1.3166-1.9115-2.9505-2.4508-4.9016-0.53932-1.9511-0.80899-4.1956-0.80899-6.7337 0-2.427 0.29346-4.6319 0.88038-6.6147s1.4673-3.6642 2.6411-5.0443c1.1739-1.3959 2.6412-2.4667 4.4019-3.2122 1.7607-0.7614 3.8149-1.1421 6.1626-1.1421 2.2683 0 4.2432 0.34103 5.9247 1.0231 1.6815 0.68207 3.0774 1.6814 4.1877 2.998 1.1263 1.3007 1.9591 2.9187 2.4984 4.854 0.55519 1.9194 0.83278 4.1243 0.83278 6.6147zm-4.3067 0.28553c0-1.7449-0.15862-3.3629-0.47588-4.854-0.30138-1.5069-0.81692-2.8077-1.5466-3.9022-0.7138-1.1104-1.6735-1.9749-2.8791-2.5935-1.2055-0.61865-2.6966-0.92797-4.4733-0.92797-1.7766 0-3.2677 0.33312-4.4733 0.99935-1.2055 0.66623-2.189 1.5545-2.9504 2.6649-0.74553 1.1104-1.2849 2.4111-1.618 3.9022-0.31725 1.4752-0.47588 3.0297-0.47588 4.6636 0 1.8083 0.1507 3.4739 0.45208 4.9967 0.3014 1.5228 0.809 2.8394 1.5228 3.9498 0.7138 1.0945 1.6656 1.9511 2.8553 2.5698 1.2055 0.60278 2.7125 0.90417 4.5208 0.90417 1.7925 0 3.2994-0.33312 4.5208-0.99935s2.2049-1.5625 2.9504-2.6887c0.74554-1.1421 1.2769-2.4587 1.5942-3.9498 0.31727-1.4911 0.4759-3.0694 0.47588-4.735z" style="paint-order:stroke markers fill"/>
    <path d="m474.22 561.1c0 0.1269-0.0238 0.23794-0.0714 0.33311-0.0476 0.0952-0.1507 0.17449-0.30932 0.23794-0.15862 0.0635-0.3807 0.11106-0.66623 0.14277-0.28552 0.0317-0.66622 0.0476-1.1421 0.0476-0.41242 0-0.75346-0.0159-1.0231-0.0476-0.2538-0.0317-0.46001-0.0793-0.61864-0.14277-0.15862-0.0793-0.28552-0.18242-0.3807-0.30932-0.0793-0.1269-0.15069-0.28553-0.21415-0.47588l-2.8315-7.2572c-0.33311-0.82487-0.68208-1.5783-1.0469-2.2604-0.34898-0.69793-0.76934-1.2928-1.2611-1.7846-0.49174-0.50761-1.0707-0.89624-1.737-1.1659-0.66623-0.28553-1.4673-0.42829-2.4032-0.42829h-2.7363v13.11c0 0.1269-0.0396 0.23794-0.11897 0.33311-0.0635 0.0952-0.1745 0.17449-0.33312 0.23794-0.14276 0.0476-0.34897 0.0873-0.61864 0.11897-0.2538 0.0476-0.57898 0.0714-0.97555 0.0714-0.39656 0-0.72968-0.0238-0.99935-0.0714-0.2538-0.0317-0.46001-0.0714-0.61864-0.11897-0.15862-0.0635-0.26966-0.14278-0.33312-0.23794-0.0635-0.0952-0.0952-0.20621-0.0952-0.33311v-28.505c0-0.61864 0.15863-1.0469 0.47588-1.2849 0.33312-0.2538 0.68208-0.3807 1.0469-0.3807h6.5433c0.77727 0 1.4197 0.0238 1.9273 0.0714 0.52347 0.0317 0.9914 0.0714 1.4038 0.11897 1.1897 0.20621 2.2366 0.5314 3.1408 0.97555 0.92 0.44415 1.6893 1.0073 2.308 1.6894 0.61865 0.68207 1.0786 1.4673 1.38 2.3556 0.31726 0.87247 0.47588 1.8401 0.47588 2.9029 0 1.0311-0.14276 1.959-0.42829 2.7839-0.26966 0.809-0.66623 1.5307-1.1897 2.1652-0.52346 0.61865-1.15 1.158-1.8797 1.618-0.72966 0.46002-1.5466 0.84865-2.4508 1.1659 0.50761 0.22208 0.96761 0.50761 1.38 0.85659 0.41243 0.33311 0.79313 0.73761 1.1421 1.2135 0.36484 0.47588 0.70588 1.0232 1.0231 1.6418 0.31723 0.61865 0.63448 1.3166 0.95176 2.0939l2.7601 6.7813c0.22208 0.57105 0.36484 0.97555 0.42829 1.2135 0.0635 0.22208 0.0952 0.39657 0.0952 0.52347zm-6.1626-21.629c0-1.2055-0.26966-2.2207-0.80899-3.0456-0.53933-0.84073-1.4435-1.4435-2.7125-1.8083-0.39656-0.11104-0.84866-0.19035-1.3563-0.23794-0.49174-0.0476-1.1421-0.0714-1.9511-0.0714h-3.4501v10.374h3.9974c1.0787 0 2.0066-0.1269 2.7839-0.38071 0.79314-0.26966 1.4514-0.63449 1.9749-1.0945 0.52347-0.47588 0.90417-1.0311 1.1421-1.6656 0.2538-0.63451 0.3807-1.3245 0.3807-2.0701z" style="paint-order:stroke markers fill"/>
    <path d="m503.47 560.03c0 0.28553-0.0159 0.53933-0.0476 0.76141-0.0317 0.20621-0.0872 0.3807-0.16655 0.52346-0.0793 0.14277-0.17449 0.24588-0.28553 0.30933-0.0952 0.0635-0.20622 0.0952-0.33312 0.0952h-14.776c-0.36484 0-0.7138-0.11897-1.0469-0.35691-0.31725-0.2538-0.47588-0.69003-0.47588-1.3087v-27.458c0-0.61864 0.15863-1.0469 0.47588-1.2849 0.33312-0.2538 0.68208-0.3807 1.0469-0.3807h14.609c0.1269 0 0.23794 0.0317 0.33311 0.0952 0.11104 0.0635 0.19829 0.16657 0.26173 0.30932 0.0635 0.14277 0.11106 0.32519 0.14277 0.54726 0.0476 0.20622 0.0714 0.46795 0.0714 0.7852 0 0.28553-0.0238 0.53934-0.0714 0.76141-0.0317 0.20621-0.0793 0.3807-0.14277 0.52347-0.0635 0.1269-0.15071 0.22208-0.26173 0.28553-0.0952 0.0635-0.20621 0.0952-0.33311 0.0952h-12.04v9.6603h10.327c0.1269 0 0.23794 0.0397 0.33312 0.11897 0.11104 0.0635 0.19828 0.15864 0.26173 0.28553 0.0793 0.1269 0.13484 0.30139 0.16656 0.52347 0.0317 0.22207 0.0476 0.48381 0.0476 0.7852 0 0.28553-0.0159 0.5314-0.0476 0.73761s-0.0873 0.37277-0.16656 0.49967c-0.0635 0.1269-0.15071 0.22208-0.26173 0.28553-0.0952 0.0476-0.20622 0.0714-0.33312 0.0714h-10.327v11.017h12.206c0.1269 0 0.23794 0.0317 0.33312 0.0952 0.11104 0.0635 0.20622 0.16657 0.28553 0.30932 0.0793 0.12691 0.13483 0.3014 0.16655 0.52347 0.0317 0.20621 0.0476 0.46795 0.0476 0.7852z" style="paint-order:stroke markers fill"/>
   </g>
  </g>
 </g>
</svg>
